# xmcd
#
# Track frame offsets:
#	150
#	12620
#	23887
#	35284
#	48296
#	59664
#	71537
#	81906
#	92961
#	106295
#	115961
#	128827
#	139394
#	151054
#	161467
#	172521
#	183919
#	197621
#	210664
#	222439
#	231500
#	242684
#	252101
#	263336
#	276570
#
# Disc length: 3835 seconds
#
# Revision: 1
# Processed by: cddbd v1.5.2PL0 Copyright (c) Steve Scherf et al.
# Submitted via: audiograbber 1.83.01
#
DISCID=610ef919
DTITLE=Various Artist - 50 Country Number Ones CD 2
DYEAR=1900
DGENRE=Country
TTITLE0=Patsy Cline - I Fall To Pieces
TTITLE1=Johnny Horton - Battle Of New Orleans
TTITLE2=Don Gibson - Oh Lonesome Me
TTITLE3=Marty Robbins - Devil Woman
TTITLE4=Porter Wagoner - Misery Loves Company
TTITLE5=Hank Thompson - Wild Side Of Live
TTITLE6=Cowboy Copas - Alabama
TTITLE7=Sonny James - Young Love
TTITLE8=Ray Price - City Lights
TTITLE9=Johnny Cash - Ballad Of A Teenage Queen
TTITLE10=Hank Williams - Hey, Good Lookin'
TTITLE11=Ferlin Husky - Gone
TTITLE12=Tennessee Ernie Ford - Sixteen Tons
TTITLE13=Jim Reeves - He'll Have To Go
TTITLE14=Red Sovine 6 Webb Pierce - Why Baby Why
TTITLE15=Hank Snow - I've Been Everywhere
TTITLE16=Lefty Frizzell - Always Late (With Your Kisses)
TTITLE17=Bobby Helms - My Special Angel
TTITLE18=Faron Young - Country Girl
TTITLE19=Wepp Pierce - Honky Tonk Song
TTITLE20=Stonewall Jackson - Waterloo
TTITLE21=The Louvin Brothers - I Don't Believe You've Met My Baby
TTITLE22=Carl Smith - Loose Talk
TTITLE23=Georg Morgan - Candy Kisses
TTITLE24=Jean Shepard and Ferlin Husk - A Dear John Letter
EXTD=
EXTT0=
EXTT1=
EXTT2=
EXTT3=
EXTT4=
EXTT5=
EXTT6=
EXTT7=
EXTT8=
EXTT9=
EXTT10=
EXTT11=
EXTT12=
EXTT13=
EXTT14=
EXTT15=
EXTT16=
EXTT17=
EXTT18=
EXTT19=
EXTT20=
EXTT21=
EXTT22=
EXTT23=
EXTT24=
PLAYORDER=
